<mxfile host="app.diagrams.net" modified="2023-05-13T05:55:39.639Z" agent="Mozilla/5.0 (Macintosh; Intel Mac OS X 10_15_7) AppleWebKit/537.36 (KHTML, like Gecko) Chrome/113.0.0.0 Safari/537.36" version="21.1.5" etag="C1pdMqzQ5vEk2Ln1CFQv" type="github">
  <diagram name="第 1 页" id="Zl5Wu301qWOwzBmfVY7P">
    <mxGraphModel>
      <root>
        <mxCell id="0" />
        <mxCell id="1" parent="0" />
      </root>
    </mxGraphModel>
  </diagram>
</mxfile>
